name Walk6.mot
datacolumns 19
datarows 25
range 2.10700000 2.13100000
endheader

                time	   L_ground_force_vx	   L_ground_force_vy	   L_ground_force_vz	   L_ground_force_px	   L_ground_force_py	   L_ground_force_pz	   R_ground_force_vx	   R_ground_force_vy	   R_ground_force_vz	   R_ground_force_px	   R_ground_force_py	   R_ground_force_pz	   L_ground_torque_x	   L_ground_torque_y	   L_ground_torque_z	   R_ground_torque_x	   R_ground_torque_y	   R_ground_torque_z	
          2.10700000	          0.00000000	          0.00000000	         -0.00000000	         -0.00000000	          0.00000000	          0.00000000	          7.37390558	         21.68320333	          2.69217871	          0.18830522	          0.00000000	          0.03388598	          0.00000000	         -0.00000000	          0.00000000	          0.00000000	          0.05285251	          0.00000000	
          2.10800000	          0.00000000	          0.00000000	         -0.00000000	         -0.00000000	          0.00000000	          0.00000000	          6.72521318	         19.51046459	          2.51231589	          0.18032466	          0.00000000	          0.03241518	          0.00000000	         -0.00000000	          0.00000000	          0.00000000	          0.05280104	          0.00000000	
          2.10900000	          0.00000000	          0.00000000	         -0.00000000	         -0.00000000	          0.00000000	          0.00000000	          6.10626445	         17.44874306	          2.33825265	          0.17234157	          0.00000000	          0.03094701	          0.00000000	         -0.00000000	          0.00000000	          0.00000000	          0.05255448	          0.00000000	
          2.11000000	          0.00000000	          0.00000000	         -0.00000000	         -0.00000000	          0.00000000	         -0.00000000	          5.51686717	         15.49638294	          2.17015329	          0.16438601	          0.00000000	          0.02948672	          0.00000000	         -0.00000000	          0.00000000	          0.00000000	          0.05213029	          0.00000000	
          2.11100000	          0.00000000	          0.00000000	         -0.00000000	         -0.00000000	          0.00000000	         -0.00000000	          4.95673595	         13.65146339	          2.00814592	          0.15648568	          0.00000000	          0.02803917	          0.00000000	         -0.00000000	          0.00000000	          0.00000000	          0.05154519	          0.00000000	
          2.11200000	          0.00000000	          0.00000000	         -0.00000000	         -0.00000000	          0.00000000	         -0.00000000	          4.42549907	         11.91182087	          1.85232478	          0.14866574	          0.00000000	          0.02660874	          0.00000000	         -0.00000000	          0.00000000	          0.00000000	          0.05081505	          0.00000000	
          2.11300000	          0.00000000	          0.00000000	         -0.00000000	         -0.00000000	          0.00000000	         -0.00000000	          3.92270722	         10.27507801	          1.70275270	          0.14094892	          0.00000000	          0.02519939	          0.00000000	         -0.00000000	          0.00000000	          0.00000000	          0.04995497	          0.00000000	
          2.11400000	          0.00000000	          0.00000000	         -0.00000000	         -0.00000000	          0.00000000	         -0.00000000	          3.44784183	          8.73867071	          1.55946355	          0.13335560	          0.00000000	          0.02381464	          0.00000000	         -0.00000000	          0.00000000	          0.00000000	          0.04897926	          0.00000000	
          2.11500000	          0.00000000	          0.00000000	         -0.00000000	         -0.00000000	          0.00000000	         -0.00000000	          3.00032289	          7.29987376	          1.42246459	          0.12590398	          0.00000000	          0.02245764	          0.00000000	         -0.00000000	          0.00000000	          0.00000000	          0.04790142	          0.00000000	
          2.11600000	          0.00000000	          0.00000000	         -0.00000000	         -0.00000000	          0.00000000	         -0.00000000	          2.57951635	          5.95582479	          1.29173870	          0.11861016	          0.00000000	          0.02113115	          0.00000000	         -0.00000000	          0.00000000	          0.00000000	          0.04673422	          0.00000000	
          2.11700000	          0.00000000	          0.00000000	         -0.00000000	         -0.00000000	          0.00000000	         -0.00000000	          2.18474114	          4.70354679	          1.16724648	          0.11148829	          0.00000000	          0.01983760	          0.00000000	         -0.00000000	          0.00000000	          0.00000000	          0.04548965	          0.00000000	
          2.11800000	          0.00000000	          0.00000000	         -0.00000000	         -0.00000000	          0.00000000	         -0.00000000	          1.81527573	          3.53996907	          1.04892836	          0.10455067	          0.00000000	          0.01857907	          0.00000000	         -0.00000000	          0.00000000	          0.00000000	          0.04417902	          0.00000000	
          2.11900000	          0.00000000	          0.00000000	         -0.00000000	         -0.00000000	          0.00000000	         -0.00000000	          1.47036431	          2.46194685	          0.93670648	          0.09780784	          0.00000000	          0.01735734	          0.00000000	         -0.00000000	          0.00000000	          0.00000000	          0.04281287	          0.00000000	
          2.12000000	          0.00000000	          0.00000000	         -0.00000000	         -0.00000000	          0.00000000	         -0.00000000	          1.14922253	          1.46627945	          0.83048657	          0.09126871	          0.00000000	          0.01617390	          0.00000000	         -0.00000000	          0.00000000	          0.00000000	          0.04140110	          0.00000000	
          2.12100000	          0.00000000	          0.00000000	         -0.00000000	         -0.00000000	          0.00000000	         -0.00000000	          0.85104291	          0.54972711	          0.73015971	          0.08494069	          0.00000000	          0.01502996	          0.00000000	         -0.00000000	          0.00000000	          0.00000000	          0.03995292	          0.00000000	
          2.12200000	          0.00000000	          0.00000000	         -0.00000000	         -0.00000000	          0.00000000	         -0.00000000	          0.57499988	         -0.29097342	          0.63560395	          0.07882974	          0.00000000	          0.01392649	          0.00000000	         -0.00000000	          0.00000000	          0.00000000	          0.03847690	          0.00000000	
          2.12300000	          0.00000000	          0.00000000	         -0.00000000	         -0.00000000	          0.00000000	         -0.00000000	          0.32025438	         -1.05909457	          0.54668592	          0.07294048	          0.00000000	          0.01286421	          0.00000000	         -0.00000000	          0.00000000	          0.00000000	          0.03698098	          0.00000000	
          2.12400000	          0.00000000	          0.00000000	         -0.00000000	         -0.00000000	          0.00000000	         -0.00000000	          0.08595824	         -1.75790479	          0.46326227	          0.06727632	          0.00000000	          0.01184365	          0.00000000	         -0.00000000	          0.00000000	          0.00000000	          0.03547251	          0.00000000	
          2.12500000	          0.00000000	          0.00000000	         -0.00000000	         -0.00000000	          0.00000000	         -0.00000000	         -0.12874188	         -2.39065655	          0.38518109	          0.06183954	          0.00000000	          0.01086510	          0.00000000	         -0.00000000	          0.00000000	          0.00000000	          0.03395825	          0.00000000	
          2.12600000	          0.00000000	          0.00000000	         -0.00000000	         -0.00000000	          0.00000000	         -0.00000000	         -0.32470082	         -2.96057537	          0.31228318	          0.05663134	          0.00000000	          0.00992869	          0.00000000	          0.00000000	          0.00000000	          0.00000000	          0.03244442	          0.00000000	
          2.12700000	          0.00000000	          0.00000000	         -0.00000000	         -0.00000000	          0.00000000	         -0.00000000	         -0.50277155	         -3.47085000	          0.24440331	          0.05165196	          0.00000000	          0.00903439	          0.00000000	          0.00000000	          0.00000000	          0.00000000	          0.03093670	          0.00000000	
          2.12800000	          0.00000000	          0.00000000	         -0.00000000	         -0.00000000	          0.00000000	         -0.00000000	         -0.66380210	         -3.92462342	          0.18137133	          0.04690077	          0.00000000	          0.00818198	          0.00000000	          0.00000000	          0.00000000	          0.00000000	          0.02944027	          0.00000000	
          2.12900000	          0.00000000	          0.00000000	         -0.00000000	         -0.00000000	          0.00000000	         -0.00000000	         -0.80863281	         -4.32498489	          0.12301323	          0.04237631	          0.00000000	          0.00737113	          0.00000000	          0.00000000	          0.00000000	          0.00000000	          0.02795983	          0.00000000	
          2.13000000	          0.00000000	          0.00000000	         -0.00000000	         -0.00000000	          0.00000000	         -0.00000000	         -0.93809378	         -4.67496286	          0.06915214	          0.03807642	          0.00000000	          0.00660137	          0.00000000	          0.00000000	          0.00000000	          0.00000000	          0.02649960	          0.00000000	
          2.13100000	          0.00000000	          0.00000000	         -0.00000000	         -0.00000000	          0.00000000	         -0.00000000	         -1.05300259	         -4.97751864	          0.01960923	          0.03399824	          0.00000000	          0.00587211	          0.00000000	          0.00000000	          0.00000000	          0.00000000	          0.02506340	          0.00000000	
